<?xml version="1.0" encoding="utf-8"?>
<!-- Generator: Adobe Illustrator 27.9.0, SVG Export Plug-In . SVG Version: 6.00 Build 0)  -->
<svg version="1.1" id="Layer_1" xmlns="http://www.w3.org/2000/svg" xmlns:xlink="http://www.w3.org/1999/xlink" x="0px" y="0px"
	 viewBox="0 0 233.3 239.6" style="enable-background:new 0 0 233.3 239.6;" xml:space="preserve">
<style type="text/css">
	.st0{fill:url(#SVGID_1_);}
	.st1{fill:#ED6EA0;}
	.st2{fill:#EC8C69;}
	.st3{fill:#874DA2;}
	.st4{fill:#C43A30;}
	.st5{fill:#FCFCFC;}
	.st6{fill:#EEEEEE;}
	.st7{fill:#2D2D2D;}
</style>
<linearGradient id="SVGID_1_" gradientUnits="userSpaceOnUse" x1="-265.2543" y1="114.2453" x2="-65.2834" y2="114.2453" gradientTransform="matrix(1 0 0 -1 0 227.5556)">
	<stop  offset="2.557339e-07" style="stop-color:#A4508B"/>
	<stop  offset="1" style="stop-color:#5F0A87"/>
</linearGradient>
<path class="st0" d="M-65.7,104.2c-0.9-7.3-2.1-14.5-2.6-21.8c-1.2-20.2-9.2-36.7-24.9-49.7c-5.1-4.2-10.1-8.7-14.8-13.5
	c-13.6-14-30.3-20.4-49.9-19.2c-1.2,0-2.4,0-3.6,0c-19.9,0.8-39.6,2.3-56.1,15.8c-3.4,2.8-7.7,4.5-11.4,6.9c-3,2-6.3,3.8-8.5,6.5
	c-19.8,23.6-31.8,49.8-26.5,81.7c2.2,13.1,4,26.3,5,39.5c0.8,10.6,2.4,13.9,12.9,16.5c6.2,1.5,9.7,5,10.6,10.9
	c1.3,8.6,2,17.2,3.1,25.8c0.7,5.5,0.9,11.3,2.9,16.4c3,7.9,10.5,9,16.4,2.9c2-2.1,3.6-5.1,4.2-7.9c1.1-4.8,1.2-9.8,1.9-14.7
	c1-7.2,4.5-10.5,11.8-10.9c6.3-0.4,11.6,2,16.6,5.7c14.7,10.9,30.5,9.7,43.4-3.1c2.1-2.1,4.2-4.1,6.2-6.2c6.8-7.2,15-10.9,25.1-10.9
	c10.8,0,18.6-5.2,23.2-14.9c2.1-4.4,3.4-9.3,5.1-13.9c1.9-5.1,3.4-10.3,5.8-15.2C-65.9,122.4-64.5,113.6-65.7,104.2z M-142.5,125.4
	c-6,4.6-13.8,7-23.5,7c-4.3,0-8.8-0.5-13.6-1.5s-8.2-2.2-10.3-3.6c-1.6-1.1-3.1-3.4-4.4-7s-1.9-7.1-1.9-10.6c0-1.6,0.3-2.9,1-3.7
	c0.8-1.1,1.9-1.6,3.2-1.6c1.3,0,2.5,0.7,3.7,2c0.7,0.7,2.4,3.1,5,7.1c1.2,1.9,3.2,3.4,5.9,4.7c2.7,1.2,5.5,1.9,8.4,1.9
	c2.5,0,4.5-0.5,6.1-1.4c1.5-0.9,2.3-2.1,2.3-3.6c0-1.3-0.6-2.5-1.8-3.5s-3.2-1.9-5.9-2.7c-4.8-1.5-8.5-2.9-11-4.2s-4.9-2.9-7.1-4.8
	c-5.3-4.7-8-10.1-8-16c0-3,0.7-5.8,2.1-8.7c1.4-2.8,3.3-5.2,5.9-7.3c5.7-4.7,12.5-7.1,20.7-7.1c3.5,0,8,0.9,13.6,2.6
	c0.7,0.2,1.2,0.3,1.6,0.3c0.3,0,1.3-0.3,3-0.9c0.5-0.2,1.1-0.3,1.7-0.3c2.3,0,4.6,1.8,7.1,5.3c2.5,3.6,3.8,7,3.8,10.2
	c0,1.9-0.6,3.5-1.7,4.8c-1.1,1.3-2.5,1.9-4.1,1.9c-1.3,0-2.4-0.3-3.3-0.8c-0.8-0.5-2.7-2.1-5.5-4.8c-4-3.8-8-5.7-11.9-5.7
	c-1.9,0-3.4,0.5-4.5,1.4c-1.1,0.9-1.7,2.1-1.7,3.6c0,2.9,2.6,5.1,7.7,6.6c7,2.1,11.4,3.5,13.4,4.5c8.6,4.2,12.9,10.3,12.9,18.4
	C-133.8,115-136.7,120.8-142.5,125.4z"/>
<ellipse class="st1" cx="-163.5" cy="289.8" rx="14.5" ry="16.5"/>
<ellipse class="st2" cx="-99.5" cy="289.8" rx="14.5" ry="16.5"/>
<ellipse class="st3" cx="-163.5" cy="334.8" rx="14.5" ry="16.5"/>
<ellipse class="st4" cx="-99.5" cy="334.8" rx="14.5" ry="16.5"/>
<circle cx="-183.5" cy="265.8" r="0.5"/>
<path class="st5" d="M-491.5,101.8c0-36.6,0-73.3-0.1-109.9c0-3,0.6-3.6,3.6-3.6c64.3,0.1,128.6,0.1,192.9,0c3,0,3.6,0.6,3.6,3.6
	c-0.1,73.3-0.1,146.6,0,219.9c0,3-0.6,3.6-3.6,3.6c-64.3-0.1-128.6-0.1-192.9,0c-3,0-3.6-0.6-3.6-3.6
	C-491.4,175.1-491.5,138.4-491.5,101.8z M-382.9-6.7c-9.1-0.4-16.7,0.7-24.3,1.4c-7.4,0.7-14.9,1.2-21.5,5.3
	c-7.8,4.9-15.8,9.6-23.8,14.4c-3.3,2-6.7,3.9-9.1,6.9c-19.2,23.2-30.9,48.7-25.6,79.9c2.1,12.2,4.9,24.4,4.9,36.9
	c0,11.2,1.9,14.1,12.7,16.8c5.6,1.4,8.3,4.8,9.8,10c2.3,8.4,2.8,17,3.1,25.6c0.2,5.1,0,10.3,2.1,15.2c3.3,7.7,10,9.2,16.3,3.8
	c2.5-2.1,4-4.8,4.4-8.1c0.6-4.9,1.1-9.9,1.8-14.8c0.9-5.9,3.2-8.4,9.1-9.6c6.9-1.4,12.6,1.2,18,5.2c14.3,10.7,29.5,9.5,42-3
	c2.5-2.5,4.9-5,7.4-7.4c5.6-5.3,12.2-9.1,20-8.9c15.9,0.3,24-8.1,28.4-22.8c2.4-8.1,4.8-16.1,8.6-23.7c2.7-5.4,3.6-11.4,3-17.4
	c-1.1-10.9-2.7-21.7-3.7-32.6c-1.4-15.1-7.8-27.5-18.9-37.7c-6.1-5.6-12.4-11-18.2-16.9C-349.7-1.6-365.6-8-382.9-6.7z"/>
<path class="st6" d="M131.4-209.8c4.2,0,8.5,0.1,12.7,0c3.5-0.1,4.7,1.6,3.8,4.7c-0.7,2.6-1.6,5.2-2.7,7.6
	c-5.3,11-10.6,22-13.8,33.8c-0.6,2.1-1.5,3.8-3.6,4.6c-1.8,0.6-3.8,1-5.3-0.3c-1.6-1.4-1.1-3.5-0.5-5.2c2.5-7.3,6.7-13.7,10.1-20.5
	c1.8-3.6,3.6-7.3,5.5-10.9c2.1-4.1,0.2-5.5-3.7-5.8c-5.4-0.3-10.4,0.6-15.2,3.3c-1.2,0.7-2.6,2.3-4.1,1c-1.3-1.1-0.7-2.9-0.6-4.3
	c0.5-7.2,1.6-8.1,8.9-8.1c2.9,0,5.8,0,8.6,0C131.4-209.9,131.4-209.9,131.4-209.8z"/>
<path class="st6" d="M96.9-188.9c0,4.2,0,8.5,0,12.7c0,4.8,0.2,9.6,5.2,12.4c0.9,0.5,1.6,1.4,1.1,2.5c-0.4,0.9-1.4,0.9-2.2,0.9
	c-6.1,0-12.2,0-18.3,0c-1.1,0-2.5,0-2.8-1.5c-0.3-1.2,0.6-2,1.5-2.4c5.1-2.5,5.7-7.1,5.6-12.1c-0.1-6.1-0.1-12.2-0.2-18.3
	c0-3.9-0.8-7.1-5.6-7.5c-1.1-0.1-2.6-0.3-2.4-2c0.1-1.2,1.1-1.6,2.1-1.9c4-1.3,8-2.7,12.1-3.8c3.1-0.9,3.9,1.1,3.9,3.7
	C96.9-200.5,96.9-194.7,96.9-188.9z"/>
<path class="st6" d="M-350.5,52.7c4.8-2,8.3-4.9,11.5-8.2c0.5-0.5,0.8-1.8,1.7-1c1,0.8,1.9,1.9,2.4,3.1c0.4,1.1-0.8,1.1-1.6,1.4
	c-0.6,0.2-1.2,0.5-1.8,0.8c-1,0.6-2.3,1.2-1.6,2.5c0.5,0.9,1.6,0.6,2.6,0.2c1.7-0.8,3.6-0.6,5.3-0.3c0.8,0.1,1.4,0.9,1.4,1.8
	c0,0.9-0.8,1.2-1.3,1c-9.1-3.5-7.9,4.8-10.1,9.2c-3.1-1.7-2.6-3.7-1.2-6.1c0.6-1.1,2.3-2.6,0.7-3.8c-1.2-0.9-2.3,0.5-3.3,1.4
	C-348.8,57.7-348.7,53.9-350.5,52.7z"/>
<path class="st6" d="M-378.7,32.5c0,0.1,0.1,0.9,0.3,1.7c0.3,1.3-0.3,1.8-1.5,1.8c-1.3,0-2.4-0.1-2.2-1.8c0.1-0.7,0.2-1.3,0.3-2
	c0-2.1,1.2-5.4-2-5.5c-2.5-0.1-1.9,3.2-2.3,5.3c-0.2,1.1,0.9,2.8-1.2,3.2c-0.8,0.1-1.8,0.1-2.4-0.3c-1.6-1.1,0.5-1.9,0.4-2.9
	c0-0.3,0-0.7,0.2-1c1.4-2-1.6-5.5,1.6-6.4c1.9-0.5,4.1,1.1,6.5,1.1C-377.5,25.9-378.9,29.5-378.7,32.5z"/>
<path class="st6" d="M-325.5,82.5c-2.7-2.1-5.1-1.3-7.4-0.7c-1.6,0.4-2.9,0.6-3.2-1.6c-0.4-2.7,1.2-1.8,2.7-1.7
	c1.4,0.1,2.9-0.6,4.3-0.7c2.2-0.1,4.5,0,3.2,3.4c-0.2,0.4-0.6,1.1-0.4,1.3c1,1.6,2,3.7,0.6,4.8c-1.9,1.4-4.5,1.8-6.8,2.6
	c-1.4,0.5-1.6-0.6-1.9-1.5c-0.5-1.5,0.3-2.2,1.7-2.2C-330,86.1-327.5,85-325.5,82.5z"/>
<path class="st6" d="M-403.2,34.1c1-1.4,0.3-2.3-0.2-3.4c-1-2,0-3.9,1.5-4.7c1.8-1,3.9-2,6-1.5c2,0.5,0.4,2.2,0.7,3.4
	c0.2,0.9,0.1,2.1-1.2,2.3c-1.8,0.4-1.7-1-1.8-2.1c-0.1-1.1-0.5-2.1-1.8-1.8c-1.5,0.3-1.4,1.8-1.1,2.8c0.7,2.9,2,5.4,5.4,6
	c1.9,0.3,3.5,1.4,2.4,3.2c-1.4,2.2-1.6-1-2.7-1.1c-1.2,0-2.4-0.4-3.4,0C-402.7,38.3-403.3,36.7-403.2,34.1z"/>
<path class="st6" d="M-371.4,39c-3.1-0.2-3.7-2.4-3.7-4.7c0-2.7,1.5-4.6,4.2-5.5c2.3-0.8,4.2,0,5.8,1.7c0.8,0.9,1.1,2.1,0.5,3.2
	c-0.7,1.5-1.9,0.8-3,0.7C-373.5,33.5-373.5,33.5-371.4,39z"/>
<path class="st6" d="M-449.8,49c-0.1,5.4,4.9,6.8,8.1,8.7c3.8,2.3,3,3.7,0.4,6.1c-2.1-3.7-5.5-5.9-8.9-8.1c-4.1-2.6-4.1-3.5,0.4-6.7
	C-449.7,49.1-449.8,49-449.8,49z"/>
<path class="st6" d="M-425.4,46.6c-2.2,2.4-4.2,2.9-6.4,1.5c-2-1.2-3.2-2.9-3-5.3c0.2-2.5,1.7-4.3,3.9-5.3c1.5-0.7,3.1-0.1,3.9,1.3
	c1,1.8-0.3,2.1-1.8,2.4c-1.5,0.3-2,1.5-1.8,3C-430.3,47.3-427.6,45.7-425.4,46.6z"/>
<path class="st6" d="M-353.6,37.8c-0.2,0.3-0.5,0.8-0.7,0.7c-4.2-1.2-5,1.4-5.9,4.7c-0.6,2.1-2.1,0.3-3.1-0.2
	c-1.3-0.6-1.5-1.3-0.1-2.4c1.1-0.9,1.7-2.4,2.7-3.5c1-1.1,0.1-3.9,1.8-3.5c1.8,0.4,3.4,2.3,5,3.5C-353.7,37.2-353.7,37.5-353.6,37.8
	z"/>
<path class="st6" d="M-325.7,95.5c-3.8,0-7.6,2.9-11.6,0.2c-0.8,1.5-1.5,3.5-1.8,6.2c-2.3-1.9-2.7-4.1-1.8-6
	c0.7-1.6,2.7-2.1,4.6-2.1C-332.7,93.9-329,93.3-325.7,95.5z"/>
<path class="st6" d="M-406.2,37.2c-0.1,0.6-1.4,0.7-2.4,1c-1.4,0.3-2,0.1-1.9-1.7c0.2-2.3-0.5-4.5-2-6.4c-0.7-0.9-1.2-1.6,0.2-2.2
	c0.9-0.4,2-1.1,2.6,0.1C-408.5,30.7-407.5,33.6-406.2,37.2z"/>
<path class="st6" d="M-448.9,47.9c2.2-3.1,5-3.4,8.2-1.9c3.3,1.5,4.8,4.1,4.9,7.6c0,0.9,0.6,2.1-0.9,2.3c-1.2,0.1-0.9-1-1.2-1.7
	c-1.8-4.8-4.7-6.4-10.4-5.7C-448.5,48.3-448.7,48.1-448.9,47.9z"/>
<path class="st6" d="M-330.1,65.7c2.9,2.5,1.9,5.1-1,6c-2.3,0.7-5.1,4.9-6.8,1.7c-1.2-2.3,3.2-3.8,5.5-4.6c1.9-0.6,1.8-1.5,1.8-2.8
	C-330.4,66-330.3,65.8-330.1,65.7z"/>
<path class="st6" d="M-415.5,40c-1.1-4.3-9.5,1.2-8.3-7.6C-422.4,37.6-413.3,31.2-415.5,40z"/>
<path class="st6" d="M-334.6,67.9c-2.6-2.3-3.1,3.5-5.4,1.1c-0.9-1-0.3-2.6,1-3.4C-336.9,64.3-335.7,65.6-334.6,67.9z"/>
<path class="st6" d="M-330.5,66.1c-1.1,0.1-1.9-0.3-2.1-1.4c-0.1-0.6,0.2-1,0.8-0.9c1,0.3,1.8,0.7,1.8,1.9
	C-330.3,65.8-330.4,66-330.5,66.1z"/>
<path class="st6" d="M-448.3,48.5c-0.4,0.4-0.8,1.1-1.5,0.4c0,0,0.1,0.1,0.1,0.1c-0.1-0.7,0.1-1.1,0.8-1.2
	C-448.7,48.1-448.5,48.3-448.3,48.5z"/>
<text transform="matrix(1 0 0 1 -6.2227 -44.0001)" style="font-family:'MyriadPro-Regular'; font-size:12px;">Designer Kang</text>
<path class="st7" d="M218.1-186.5c-1.1-11.1-2.8-22.2-3.8-33.4c-1.4-15.5-8-28.2-19.4-38.6c-6.3-5.7-12.7-11.3-18.6-17.3
	c-13.6-13.8-29.8-20.3-47.6-19c-9.3-0.4-17.1,0.7-24.8,1.5c-7.5,0.8-15.2,1.2-22,5.5c-8,5-16.2,9.8-24.3,14.8c-3.3,2-6.8,4-9.3,7
	c-19.7,23.8-31.7,49.9-26.2,81.9c2.2,12.5,5,25,5,37.8c0,11.5,1.9,14.5,13,17.2c5.8,1.5,8.6,4.9,10,10.2c2.3,8.6,2.8,17.4,3.1,26.2
	c0.2,5.2,0,10.6,2.2,15.5c3.4,7.9,10.2,9.5,16.7,3.9c2.6-2.2,4.1-4.9,4.5-8.3c0.6-5.1,1.1-10.1,1.8-15.2c0.9-6.1,3.3-8.6,9.3-9.9
	c7-1.4,12.9,1.2,18.4,5.3c14.6,10.9,30.2,9.7,43-3.1c2.5-2.5,5-5.1,7.6-7.6c5.7-5.4,12.5-9.3,20.4-9.1c16.3,0.3,24.6-8.3,29.1-23.3
	c2.5-8.3,4.9-16.5,8.8-24.3C217.8-174.1,218.7-180.3,218.1-186.5z M102-161.3c-0.4,0.9-1.4,0.9-2.2,0.9c-6.1,0-12.2,0-18.3,0
	c-1.1,0-2.5,0-2.8-1.5c-0.3-1.2,0.6-2,1.5-2.4c5.1-2.5,5.7-7.1,5.6-12.1c-0.1-6.1-0.1-12.2-0.2-18.3c0-3.9-0.8-7.1-5.6-7.5
	c-1.1-0.1-2.6-0.3-2.4-2c0.1-1.2,1.1-1.6,2.1-1.9c4-1.3,8-2.7,12.1-3.8c3.1-0.9,3.9,1.1,3.9,3.7c0,5.8,0,11.5,0,17.3
	c0,4.2,0,8.5,0,12.7c0,4.8,0.2,9.6,5.2,12.4C101.8-163.3,102.5-162.4,102-161.3z M146.7-205.1c-0.7,2.6-1.6,5.2-2.7,7.6
	c-5.3,11-10.6,22-13.8,33.8c-0.6,2.1-1.5,3.8-3.6,4.6c-1.8,0.6-3.8,1-5.3-0.3c-1.6-1.4-1.1-3.5-0.5-5.2c2.5-7.3,6.7-13.7,10.1-20.5
	c1.8-3.6,3.6-7.3,5.5-10.9c2.1-4.1,0.2-5.5-3.7-5.8c-5.4-0.3-10.4,0.6-15.2,3.3c-1.2,0.7-2.6,2.3-4.1,1c-1.3-1.1-0.7-2.9-0.6-4.3
	c0.5-7.2,1.6-8.1,8.9-8.1c2.9,0,5.8,0,8.6,0c0,0,0,0.1,0,0.1c4.2,0,8.5,0.1,12.7,0C146.4-210,147.6-208.2,146.7-205.1z"/>
<g>
	<path id="SVGID_x5F_00000016760333944141247930000002491949064324445887_x5F_" style="fill:none;" d="M157.8-236.7
		c24.2,21.1,26.6,57.9,5.5,82s-57.9,26.6-82,5.5s-26.6-57.9-5.5-82S133.6-257.8,157.8-236.7z"/>
	<text>	<textPath  xlink:href="#SVGID_x5F_00000016760333944141247930000002491949064324445887_x5F_" startOffset="96.6146%">
<tspan  style="fill:#FFFFFF; font-family:'Stylish-Regular'; font-size:29px; letter-spacing:20;">Designer Kang</tspan>	</textPath>
</text>
</g>
<path class="st6" d="M357.2,94.4c4.2,0,8.5,0.1,12.7,0c3.5-0.1,4.7,1.6,3.8,4.7c-0.7,2.6-1.6,5.2-2.7,7.6c-5.3,11-10.6,22-13.8,33.8
	c-0.6,2.1-1.5,3.8-3.6,4.6c-1.8,0.6-3.8,1-5.3-0.3c-1.6-1.4-1.1-3.5-0.5-5.2c2.5-7.3,6.7-13.7,10.1-20.5c1.8-3.6,3.6-7.3,5.5-10.9
	c2.1-4.1,0.2-5.5-3.7-5.8c-5.4-0.3-10.4,0.6-15.2,3.3c-1.2,0.7-2.6,2.3-4.1,1c-1.3-1.1-0.7-2.9-0.6-4.3c0.5-7.2,1.6-8.1,8.9-8.1
	c2.9,0,5.8,0,8.6,0C357.2,94.3,357.2,94.4,357.2,94.4z"/>
<path class="st6" d="M322.7,115.3c0,4.2,0,8.5,0,12.7c0,4.8,0.2,9.6,5.2,12.4c0.9,0.5,1.6,1.4,1.1,2.5c-0.4,0.9-1.4,0.9-2.2,0.9
	c-6.1,0-12.2,0-18.3,0c-1.1,0-2.5,0-2.8-1.5c-0.3-1.2,0.6-2,1.5-2.4c5.1-2.5,5.7-7.1,5.6-12.1c-0.1-6.1-0.1-12.2-0.2-18.3
	c0-3.9-0.8-7.1-5.6-7.5c-1.1-0.1-2.6-0.3-2.4-2c0.1-1.2,1.1-1.6,2.1-1.9c4-1.3,8-2.7,12.1-3.8c3.1-0.9,3.9,1.1,3.9,3.7
	C322.7,103.8,322.7,109.5,322.7,115.3z"/>
<path class="st7" d="M443.9,117.8c-1.1-11.1-2.8-22.2-3.8-33.4c-1.4-15.5-8-28.2-19.4-38.6c-6.3-5.7-12.7-11.3-18.6-17.3
	c-13.6-13.8-29.8-20.3-47.6-19c-9.3-0.4-17.1,0.7-24.8,1.5c-7.5,0.8-15.2,1.2-22,5.5c-8,5-16.2,9.8-24.3,14.8c-3.3,2-6.8,4-9.3,7
	c-19.7,23.8-31.7,49.9-26.2,81.9c2.2,12.5,5,25,5,37.8c0,11.5,1.9,14.5,13,17.2c5.8,1.5,8.6,4.9,10,10.2c2.3,8.6,2.8,17.4,3.1,26.2
	c0.2,5.2,0,10.6,2.2,15.5c3.4,7.9,10.2,9.5,16.7,3.9c2.6-2.2,4.1-4.9,4.5-8.3c0.6-5.1,1.1-10.1,1.8-15.2c0.9-6.1,3.3-8.6,9.3-9.9
	c7-1.4,12.9,1.2,18.4,5.3c14.6,10.9,30.2,9.7,43-3.1c2.5-2.5,5-5.1,7.6-7.6c5.7-5.4,12.5-9.3,20.4-9.1c16.3,0.3,24.6-8.3,29.1-23.3
	c2.5-8.3,4.9-16.5,8.8-24.3C443.6,130.1,444.5,123.9,443.9,117.8z M327.7,142.9c-0.4,0.9-1.4,0.9-2.2,0.9c-6.1,0-12.2,0-18.3,0
	c-1.1,0-2.5,0-2.8-1.5c-0.3-1.2,0.6-2,1.5-2.4c5.1-2.5,5.7-7.1,5.6-12.1c-0.1-6.1-0.1-12.2-0.2-18.3c0-3.9-0.8-7.1-5.6-7.5
	c-1.1-0.1-2.6-0.3-2.4-2c0.1-1.2,1.1-1.6,2.1-1.9c4-1.3,8-2.7,12.1-3.8c3.1-0.9,3.9,1.1,3.9,3.7c0,5.8,0,11.5,0,17.3
	c0,4.2,0,8.5,0,12.7c0,4.8,0.2,9.6,5.2,12.4C327.5,140.9,328.3,141.8,327.7,142.9z M372.5,99.1c-0.7,2.6-1.6,5.2-2.7,7.6
	c-5.3,11-10.6,22-13.8,33.8c-0.6,2.1-1.5,3.8-3.6,4.6c-1.8,0.6-3.8,1-5.3-0.3c-1.6-1.4-1.1-3.5-0.5-5.2c2.5-7.3,6.7-13.7,10.1-20.5
	c1.8-3.6,3.6-7.3,5.5-10.9c2.1-4.1,0.2-5.5-3.7-5.8c-5.4-0.3-10.4,0.6-15.2,3.3c-1.2,0.7-2.6,2.3-4.1,1c-1.3-1.1-0.7-2.9-0.6-4.3
	c0.5-7.2,1.6-8.1,8.9-8.1c2.9,0,5.8,0,8.6,0c0,0,0,0.1,0,0.1c4.2,0,8.5,0.1,12.7,0C372.2,94.3,373.3,96,372.5,99.1z"/>
<g>
	<path id="SVGID_x5F_00000021835274592507268810000000398172338714711480_x5F_" style="fill:none;" d="M383.6,67.5
		c24.2,21.1,26.6,57.9,5.5,82s-57.9,26.6-82,5.5c-24.2-21.1-26.6-57.9-5.5-82C322.7,48.8,359.4,46.4,383.6,67.5z"/>
	<text>	<textPath  xlink:href="#SVGID_x5F_00000021835274592507268810000000398172338714711480_x5F_" startOffset="96.6146%">
<tspan  style="fill:#FFFFFF; font-family:'Stylish-Regular'; font-size:29px; letter-spacing:20;">Designer Kang</tspan>	</textPath>
</text>
</g>
</svg>
