<svg width="298" height="353" viewBox="0 0 298 353" fill="none" xmlns="http://www.w3.org/2000/svg">
<path d="M297.482 162.885C296.181 151.314 294.221 139.806 293.578 128.203C291.817 96.875 279.707 71.2212 256.373 51.1464C248.733 44.566 241.323 37.6042 234.387 30.245C214.04 8.69195 189.481 -1.16268 160.498 0.108885C148.816 1.04666 136.997 1.17382 125.483 3.14475C114.061 5.09978 102.303 7.40449 91.8764 12.2841C79.1992 18.2287 67.6703 26.8594 55.8353 34.6478C50.6909 38.0333 45.1179 41.403 41.3055 46.1396C11.7102 82.856 -6.12668 123.53 1.942 173.074C5.20316 193.117 7.88251 213.35 9.3217 233.616C10.5465 250.814 12.6288 255.63 28.858 259.89C37.7075 262.21 42.9131 267.44 44.2298 276.309C46.1896 289.597 47.2154 303.044 48.9455 316.379C50.1244 325.471 50.5531 334.992 53.6765 343.384C57.6725 354.129 67.8541 356.02 76.1065 348.295C79.6585 344.973 82.5522 339.951 83.7771 335.151C85.645 327.807 85.7062 319.987 86.7014 312.389C88.2784 300.341 93.729 295.223 105.365 294.81C114.184 294.492 121.64 298.053 128.606 303.457C151.006 320.845 174.293 319.081 193.814 298.736C197.06 295.366 200.337 292.013 203.536 288.595C213.427 278.01 225.277 272.383 239.654 272.383C256.082 272.367 267.81 264.261 274.868 248.986C276.951 244.488 278.451 239.672 280.135 234.983C284.376 223.141 288.281 211.173 292.843 199.474C297.452 187.601 298.891 175.474 297.482 162.885Z" fill="#131313"/>
</svg>
