<svg width="978" height="380" viewBox="0 0 978 380" fill="none" xmlns="http://www.w3.org/2000/svg">
<path d="M626.066 142.455C624.836 132.488 623.197 122.658 622.514 112.691C620.875 85.1123 609.947 62.585 588.501 44.8362C581.534 39.1019 574.704 32.9581 568.284 26.4047C549.707 7.29061 526.895 -1.44727 500.121 0.191086H495.204C468.02 1.28332 441.11 3.33126 418.571 21.7627C413.927 25.5855 408.053 27.9065 402.999 31.1832C398.901 33.9138 394.393 36.3713 391.388 40.0576C364.341 72.2785 347.949 108.049 355.189 151.602C358.194 169.487 360.653 187.509 362.019 205.531C363.112 220.003 365.298 224.509 379.64 228.058C388.11 230.106 392.891 234.885 394.12 242.94C395.896 254.682 396.852 266.423 398.355 278.165C399.311 285.674 399.584 293.593 402.316 300.555C406.414 311.341 416.659 312.843 424.718 304.515C427.45 301.648 429.636 297.552 430.455 293.729C431.958 287.176 432.095 280.349 433.051 273.659C434.417 263.829 439.198 259.324 449.17 258.778C457.775 258.231 465.015 261.508 471.845 266.56C491.925 281.441 513.508 279.803 531.129 262.327C533.998 259.46 536.866 256.73 539.598 253.862C548.887 244.032 560.088 238.981 573.885 238.981C588.638 238.981 599.292 231.881 605.576 218.638C608.444 212.631 610.22 205.941 612.542 199.66C615.138 192.697 617.187 185.598 620.465 178.908C625.793 167.303 627.705 155.288 626.066 142.455ZM521.157 171.399C512.961 177.679 502.307 180.956 489.057 180.956C483.183 180.956 477.036 180.273 470.479 178.908C463.922 177.543 459.278 175.904 456.409 173.993C454.224 172.491 452.175 169.351 450.399 164.436C448.623 159.521 447.804 154.742 447.804 149.964C447.804 147.779 448.213 146.004 449.17 144.912C450.262 143.41 451.765 142.728 453.541 142.728C455.317 142.728 456.956 143.683 458.595 145.458C459.551 146.414 461.873 149.691 465.425 155.152C467.064 157.746 469.796 159.794 473.484 161.569C477.172 163.207 480.997 164.163 484.959 164.163C488.374 164.163 491.106 163.48 493.291 162.251C495.34 161.023 496.433 159.384 496.433 157.336C496.433 155.561 495.613 153.923 493.974 152.558C492.335 151.192 489.603 149.964 485.915 148.871C479.358 146.824 474.304 144.912 470.889 143.137C467.474 141.362 464.195 139.178 461.19 136.584C453.951 130.167 450.262 122.794 450.262 114.739C450.262 110.643 451.219 106.82 453.131 102.861C455.043 99.0383 457.639 95.7616 461.19 92.8945C468.976 86.4776 478.265 83.2009 489.466 83.2009C494.247 83.2009 500.394 84.4297 508.044 86.7507C509 87.0237 509.683 87.1602 510.229 87.1602C510.639 87.1602 512.005 86.7506 514.327 85.9315C515.01 85.6584 515.83 85.5219 516.65 85.5219C519.791 85.5219 522.933 87.9794 526.348 92.7579C529.763 97.673 531.539 102.315 531.539 106.684C531.539 109.278 530.719 111.462 529.217 113.237C527.714 115.012 525.802 115.831 523.616 115.831C521.84 115.831 520.338 115.422 519.108 114.739C518.016 114.057 515.42 111.872 511.595 108.186C506.131 102.998 500.668 100.404 495.34 100.404C492.745 100.404 490.696 101.086 489.193 102.315C487.691 103.544 486.871 105.182 486.871 107.23C486.871 111.189 490.423 114.193 497.389 116.241C506.951 119.108 512.961 121.019 515.693 122.385C527.441 128.119 533.315 136.447 533.315 147.506C533.042 157.2 529.08 165.118 521.157 171.399Z" fill="url(#paint0_linear_184_23)"/>
<path d="M764.294 251.988C764.751 251.988 764.979 251.76 765.207 251.532C784.157 233.723 801.052 217.97 812.924 194.226C816.349 187.604 816.577 185.55 817.262 178.015C817.262 175.504 817.034 171.623 814.751 171.623C807.673 172.308 802.194 177.33 798.541 181.212C778.906 200.162 770.687 226.417 764.294 251.075L764.066 251.532L764.294 251.988ZM815.893 376.19C802.194 376.19 795.573 355.87 795.573 338.747C795.573 322.993 799.454 307.24 802.422 293.085C804.705 281.212 805.847 275.276 806.532 263.404C806.532 262.491 806.532 261.806 806.075 261.806C805.618 261.806 805.162 262.263 804.477 262.947C795.344 272.993 789.865 285.322 786.44 299.934C783.472 311.806 782.102 324.135 776.851 335.094C773.198 343.313 767.719 345.825 761.098 345.825C756.76 345.596 755.618 345.825 751.737 344.227C736.212 338.747 733.928 315.916 733.928 300.847C733.928 270.71 743.061 238.29 752.878 212.262C760.413 191.942 773.426 170.253 791.235 157.696C797.171 153.586 805.39 149.248 812.924 149.248C824.34 149.248 831.874 159.522 831.874 171.394C831.189 187.833 825.938 196.737 816.349 209.979C799.226 232.354 780.732 248.335 762.239 264.546C761.098 265.231 760.641 266.144 760.413 267.285C758.13 278.701 756.76 290.345 756.76 301.76C756.988 313.861 757.673 319.569 762.467 329.615C763.381 331.213 764.522 332.583 765.892 332.583C770.002 332.583 772.513 320.482 774.111 312.263C776.166 299.021 779.819 286.007 785.527 273.678C790.55 261.806 799.682 249.249 812.468 248.792C823.198 248.792 827.765 260.436 827.765 273.678C827.765 293.313 818.176 315.459 818.176 338.519C818.176 341.487 818.404 344.455 818.861 347.423C819.089 348.564 820.002 352.217 820.915 352.902C822.742 351.532 824.34 349.706 825.938 347.88C836.212 335.094 841.692 322.08 848.769 307.24L863.381 277.331C864.523 274.591 866.349 270.938 868.176 270.938C869.546 271.395 870.002 271.623 870.002 273.221C870.002 273.678 870.002 274.135 869.774 274.591L861.327 294.454C854.706 309.523 835.527 364.775 825.482 372.537C822.514 374.82 819.089 376.19 815.893 376.19Z" fill="#97438A"/>
<path d="M643.335 303.359C645.161 302.674 646.303 301.76 647.673 300.847C659.773 291.943 667.308 278.701 680.093 267.742C680.55 267.514 681.006 267.057 681.006 266.6C680.322 262.491 681.463 260.436 678.038 260.436C673.472 260.436 663.883 267.285 661.828 268.655C653.609 274.82 648.13 282.811 644.933 292.4C644.02 295.368 643.335 298.564 643.335 301.76V303.359ZM686.714 379.843C682.376 379.843 678.267 377.788 675.07 373.907C668.906 366.373 666.851 355.414 666.851 345.825C666.851 320.025 675.527 299.706 683.975 276.418V275.961C683.29 275.961 682.833 276.418 682.605 276.874C679.637 279.842 677.353 283.039 675.07 286.464C667.536 296.966 661.143 309.295 653.152 320.71C649.956 325.277 644.705 327.788 639.225 327.788C633.746 327.788 628.495 325.505 624.842 320.482C620.96 315.231 620.504 310.893 620.504 304.272C620.504 279.386 635.801 254.956 658.404 244.682C660.915 243.541 663.655 242.856 666.623 242.856C672.559 242.856 678.723 245.367 683.061 250.162C685.344 252.902 686.258 256.098 686.258 259.294L686.029 263.404H686.258C686.943 263.404 687.171 262.947 687.856 262.719C691.509 261.121 692.879 260.664 696.76 259.979C703.609 259.979 706.577 268.655 706.577 275.733C706.577 278.701 706.121 281.669 705.208 284.637C697.217 305.87 690.367 323.45 689.682 345.825C689.682 348.793 689.911 351.761 690.596 354.501C690.824 355.185 690.824 355.87 691.509 356.555C693.564 355.185 695.162 353.587 696.532 351.532C700.413 346.966 703.381 341.943 706.349 336.921C718.906 314.318 725.984 293.998 738.313 272.537C738.998 271.395 739.683 270.938 740.368 270.938C741.737 271.167 742.422 271.395 742.422 272.765L741.966 274.591L733.747 293.77C727.125 309.066 706.349 368.428 696.303 376.19C693.335 378.473 689.911 379.843 686.714 379.843Z" fill="#97438A"/>
<path d="M860.733 157.402C865.07 156.26 867.582 153.977 870.55 151.009C887.217 135.712 894.066 117.447 908.678 102.607C908.906 102.15 909.135 101.694 909.135 101.237V100.78C906.167 93.0178 902.285 90.0497 897.947 90.0497C892.925 90.0497 886.988 94.3876 880.824 100.552C869.18 112.424 858.449 128.406 857.993 147.584C858.221 149.867 858.221 153.064 859.363 156.26C859.591 156.945 860.048 157.402 860.733 157.402ZM878.313 263.11C899.774 260.827 905.482 240.051 910.505 218.133C914.614 201.694 915.527 191.877 917.582 174.069C916.441 174.297 916.212 174.753 915.984 175.21C902.514 190.279 888.13 206.032 878.313 225.439C874.203 232.973 870.093 242.562 870.093 251.695C870.778 259.001 872.148 263.11 878.313 263.11ZM878.769 285.941C876.029 285.941 873.518 285.485 870.778 284.8C857.308 281.603 852.513 269.046 852.513 255.576C853.198 234.343 864.842 217.676 878.998 201.238C890.87 187.311 903.427 174.069 916.212 160.826C918.039 159 918.724 157.173 918.724 154.662C918.724 139.593 918.267 131.831 917.811 117.675L918.267 109.913C917.126 110.141 916.669 111.054 915.984 111.739C913.701 114.251 911.646 116.991 909.591 119.73C899.546 135.255 891.783 151.922 881.052 166.306C875.116 174.069 868.952 180.461 859.134 180.461C852.742 180.461 846.121 177.722 841.783 171.329C836.988 164.251 835.39 155.347 835.39 146.443C835.39 121.557 851.6 95.3009 870.55 79.5474C876.714 74.0679 886.075 68.5884 894.523 68.5884C907.537 68.5884 916.441 80.4606 916.441 93.4744V94.6159C916.441 95.0726 916.441 95.5292 916.897 96.2141C918.039 95.9858 919.18 95.7575 920.55 95.7575L922.833 95.9858C933.792 97.584 939.729 112.881 940.642 122.47C941.327 127.036 940.87 130.461 941.555 135.255C942.468 135.027 943.153 134.114 943.61 133.657C952.057 125.895 962.103 117.447 973.062 108.315L974.204 107.858C975.574 107.858 977.172 108.771 977.172 110.141C977.172 111.054 976.487 112.424 974.889 114.022C962.56 125.666 952.286 137.082 942.925 146.214C941.783 147.128 941.327 148.498 941.327 150.096C941.327 167.904 939.729 184.343 936.532 203.292C933.564 222.242 928.541 243.932 918.952 260.599C910.961 274.526 895.436 285.941 878.769 285.941Z" fill="#97438A"/>
<path d="M792.061 203.293C780.417 203.293 775.166 190.964 775.166 179.32C775.166 159 779.96 141.42 786.125 121.101C788.179 114.251 790.691 107.63 792.289 100.552C793.202 97.1278 795.029 89.1369 795.029 83.2007C795.029 79.0911 794.115 75.8948 790.919 75.8948C789.778 75.8948 788.179 76.3514 786.125 77.4929C772.882 85.0272 765.805 100.552 762.38 116.078C759.412 132.06 755.531 156.489 745.485 169.503C741.832 174.069 735.896 176.809 730.873 176.809C716.033 176.809 712.836 159.914 712.836 147.356C712.836 139.366 713.978 131.375 716.033 123.612C716.946 119.502 717.859 115.393 719.229 111.511C721.284 105.575 726.307 101.466 731.558 101.466C737.722 101.466 740.919 105.575 741.604 113.11C741.604 115.164 741.375 116.991 740.69 118.817C737.722 128.178 735.668 136.397 735.439 146.671C735.439 149.411 735.668 152.151 735.896 154.891C738.179 153.293 739.549 151.694 740.919 149.868C746.398 141.649 750.508 119.502 752.791 109.457C754.846 100.096 758.27 91.1917 763.293 82.9724C770.828 71.3285 783.385 60.8262 795.485 60.8262C805.531 60.8262 814.435 67.6755 816.033 80.9176C816.262 83.4291 816.49 86.1688 816.49 88.6802C816.49 106.945 808.499 124.754 803.02 143.932C799.367 155.804 798.225 169.046 797.768 180.918C797.768 181.375 797.768 182.06 798.225 182.516H798.453C799.138 182.516 799.367 182.06 799.823 181.832C811.011 172.699 839.321 124.297 847.084 110.142C847.769 108.772 849.139 107.858 850.509 107.858C851.878 107.858 852.792 108.772 852.792 110.37C852.792 111.055 852.563 111.968 852.107 113.11C837.266 142.334 822.654 169.959 805.303 195.302C800.737 201.01 797.768 203.293 792.061 203.293Z" fill="#97438A"/>
<path d="M660.095 171.558C664.432 170.416 667.401 166.991 669.912 162.653C676.305 151.694 678.359 137.539 678.359 124.982C678.359 118.361 674.706 116.991 671.282 109.685C670.369 110.142 669.912 110.598 669.684 111.283C668.085 113.11 666.716 115.164 665.574 117.448C658.496 130.461 655.3 144.388 655.3 159.229C655.3 164.708 655.3 171.558 658.725 171.558H660.095ZM657.583 194.389C652.332 194.389 647.766 192.562 644.341 190.051C634.524 183.201 632.697 170.416 632.697 156.489C632.925 137.996 637.72 119.731 647.766 103.064C653.245 94.1598 660.095 86.6255 669.455 86.6255C674.25 86.6255 680.186 87.9954 680.871 93.9315C680.871 94.6164 681.328 94.8447 681.784 95.073C687.035 97.3561 687.949 103.749 688.862 108.543C689.547 112.653 692.058 113.566 695.026 113.566C696.624 113.566 698.223 113.338 699.821 113.11L724.022 107.859C726.077 107.859 726.533 108.543 726.99 110.37C726.99 111.283 726.305 111.74 725.62 112.196C724.25 113.11 722.652 113.795 721.054 114.251C714.661 116.763 708.04 119.046 701.191 120.416C689.547 122.699 690.688 122.242 690.003 128.635C689.775 134.799 689.775 140.735 688.862 146.672C684.981 169.503 675.163 194.389 657.583 194.389Z" fill="#97438A"/>
<path d="M579.452 123.611C579.909 123.611 579.909 123.611 580.137 123.383C589.726 116.99 601.598 109.228 601.598 98.0405C591.553 104.433 584.475 113.109 578.996 123.611H579.452ZM573.516 179.776H572.831C564.612 179.776 557.763 174.982 553.653 166.078C550.685 159.228 550 152.15 550 145.073C550.913 120.415 565.754 95.7574 585.16 81.6021C589.726 77.9491 596.119 74.5244 601.598 74.5244C610.731 74.5244 616.21 81.1455 616.439 90.9629C616.439 114.022 595.206 129.091 575.571 137.31C574.201 137.995 573.516 138.68 573.288 140.278C573.059 142.561 572.831 145.073 572.831 147.356C572.831 149.639 573.059 151.922 573.516 154.205C574.658 159.456 577.397 160.598 583.105 161.055C585.845 161.055 588.356 160.37 590.64 159.228C608.904 151.237 632.192 126.808 644.978 110.369C645.891 109 647.261 107.858 648.402 107.858C649.544 107.858 650.914 109.228 650.914 110.598C650.914 111.968 650.686 111.968 649.772 113.794C638.357 132.059 606.393 169.502 588.356 176.808C584.018 178.635 579.681 179.776 573.516 179.776Z" fill="#97438A"/>
<path d="M347.23 160.907C351.103 159.888 353.345 157.849 355.995 155.199C370.876 141.541 376.992 125.233 390.038 111.983C390.242 111.575 390.446 111.168 390.446 110.76V110.352C387.796 103.421 384.33 100.771 380.457 100.771C375.973 100.771 370.673 104.644 365.169 110.148C354.772 120.749 345.191 135.018 344.784 152.141C344.987 154.18 344.987 157.034 346.007 159.888C346.211 160.499 346.618 160.907 347.23 160.907ZM362.926 255.29C382.088 253.251 387.184 234.701 391.669 215.131C395.338 200.454 396.154 191.688 397.988 175.788C396.969 175.992 396.765 176.4 396.561 176.807C384.534 190.261 371.692 204.327 362.926 221.654C359.257 228.381 355.588 236.943 355.588 245.097C356.199 251.62 357.422 255.29 362.926 255.29ZM363.334 275.675C360.888 275.675 358.645 275.267 356.199 274.655C344.172 271.801 339.891 260.59 339.891 248.563C340.503 229.604 350.899 214.723 363.538 200.046C374.138 187.611 385.35 175.788 396.765 163.965C398.396 162.334 399.008 160.703 399.008 158.461C399.008 145.007 398.6 138.076 398.192 125.437L398.6 118.506C397.581 118.71 397.173 119.525 396.561 120.137C394.523 122.379 392.688 124.826 390.854 127.272C381.884 141.134 374.953 156.015 365.372 168.857C360.072 175.788 354.568 181.496 345.803 181.496C340.095 181.496 334.183 179.05 330.31 173.342C326.029 167.023 324.602 159.072 324.602 151.122C324.602 128.903 339.076 105.46 355.995 91.3942C361.499 86.5018 369.857 81.6094 377.4 81.6094C389.019 81.6094 396.969 92.2096 396.969 103.829V104.848C396.969 105.256 396.969 105.664 397.377 106.275C398.396 106.071 399.415 105.868 400.638 105.868L402.677 106.071C412.462 107.498 417.762 121.156 418.577 129.718C419.189 133.795 418.781 136.853 419.393 141.134C420.208 140.93 420.82 140.114 421.227 139.707C428.77 132.776 437.739 125.233 447.524 117.079L448.543 116.672C449.766 116.672 451.193 117.487 451.193 118.71C451.193 119.525 450.582 120.749 449.155 122.176C438.147 132.572 428.974 142.764 420.616 150.918C419.597 151.734 419.189 152.957 419.189 154.384C419.189 170.284 417.762 184.961 414.908 201.881C412.258 218.8 407.773 238.166 399.212 253.047C392.077 265.482 378.215 275.675 363.334 275.675Z" fill="#711C88"/>
<path d="M285.916 201.881C275.519 201.881 270.831 190.873 270.831 180.476C270.831 162.334 275.111 146.637 280.615 128.495C282.45 122.379 284.692 116.467 286.119 110.148C286.935 107.09 288.566 99.9556 288.566 94.6555C288.566 90.9862 287.75 88.1323 284.896 88.1323C283.877 88.1323 282.45 88.54 280.615 89.5593C268.792 96.2863 262.473 110.148 259.415 124.01C256.765 138.279 253.3 160.091 244.33 171.711C241.069 175.788 235.768 178.234 231.284 178.234C218.033 178.234 215.18 163.149 215.18 151.937C215.18 144.803 216.199 137.668 218.033 130.737C218.849 127.068 219.664 123.398 220.887 119.933C222.722 114.633 227.207 110.964 231.895 110.964C237.399 110.964 240.253 114.633 240.865 121.36C240.865 123.195 240.661 124.825 240.049 126.456C237.399 134.814 235.565 142.153 235.361 151.326C235.361 153.772 235.565 156.218 235.768 158.664C237.807 157.237 239.03 155.811 240.253 154.18C245.146 146.841 248.815 127.068 250.853 118.098C252.688 109.74 255.746 101.79 260.23 94.4517C266.957 84.0553 278.169 74.6782 288.973 74.6782C297.943 74.6782 305.893 80.7937 307.32 92.617C307.524 94.8594 307.727 97.3056 307.727 99.5479C307.727 115.856 300.593 131.756 295.7 148.88C292.439 159.48 291.419 171.303 291.012 181.903C291.012 182.311 291.012 182.923 291.419 183.33H291.623C292.235 183.33 292.439 182.923 292.846 182.719C302.835 174.565 328.112 131.349 335.043 118.71C335.655 117.487 336.878 116.671 338.101 116.671C339.324 116.671 340.14 117.487 340.14 118.914C340.14 119.525 339.936 120.341 339.528 121.36C326.278 147.453 313.231 172.119 297.739 194.746C293.662 199.842 291.012 201.881 285.916 201.881Z" fill="#711C88"/>
<path d="M139.389 145.618C141.02 145.007 142.039 144.191 143.262 143.376C154.066 135.426 160.793 123.603 172.209 113.818C172.616 113.614 173.024 113.206 173.024 112.799C172.412 109.129 173.432 107.295 170.374 107.295C166.297 107.295 157.735 113.41 155.901 114.633C148.562 120.137 143.67 127.272 140.816 135.834C140 138.484 139.389 141.338 139.389 144.191V145.618ZM178.12 213.908C174.247 213.908 170.578 212.073 167.724 208.608C162.22 201.881 160.385 192.096 160.385 183.534C160.385 160.499 168.132 142.357 175.674 121.564V121.156C175.063 121.156 174.655 121.564 174.451 121.972C171.801 124.622 169.762 127.476 167.724 130.533C160.997 139.911 155.289 150.918 148.154 161.111C145.3 165.188 140.612 167.43 135.719 167.43C130.827 167.43 126.139 165.392 122.877 160.907C119.411 156.219 119.004 152.345 119.004 146.434C119.004 124.214 132.662 102.402 152.843 93.2289C155.085 92.2097 157.531 91.5981 160.181 91.5981C165.482 91.5981 170.986 93.8405 174.859 98.1213C176.897 100.568 177.713 103.421 177.713 106.275L177.509 109.945H177.713C178.324 109.945 178.528 109.537 179.14 109.333C182.401 107.906 183.624 107.498 187.09 106.887C193.205 106.887 195.855 114.633 195.855 120.953C195.855 123.603 195.448 126.253 194.632 128.903C187.497 147.861 181.382 163.557 180.77 183.534C180.77 186.185 180.974 188.835 181.586 191.281C181.79 191.892 181.79 192.504 182.401 193.115C184.236 191.892 185.663 190.465 186.886 188.631C190.351 184.554 193.001 180.069 195.651 175.584C206.863 155.403 213.182 137.261 224.19 118.099C224.802 117.079 225.413 116.672 226.025 116.672C227.248 116.876 227.86 117.079 227.86 118.302L227.452 119.933L220.113 137.057C214.202 150.715 195.651 203.716 186.682 210.647C184.032 212.685 180.974 213.908 178.12 213.908Z" fill="#711C88"/>
<path d="M18.7542 58.1664V53.8855C18.5503 44.1007 17.9388 34.5198 17.9388 24.735V21.8811C17.9388 21.2695 17.7349 20.658 17.3272 20.2502C13.8618 23.1042 11.2117 29.8312 11.2117 37.3737C11.2117 44.3046 13.4541 52.0509 18.7542 58.1664ZM25.4812 209.831H25.0735C22.2197 209.831 20.1811 208.2 18.958 205.754C17.7349 203.308 16.9195 200.454 16.5119 197.6C15.4926 190.057 15.0849 182.515 15.0849 174.769V174.157C15.0849 173.342 15.0849 173.138 13.8618 173.138H12.231C6.5232 173.138 2.24235 169.265 1.83465 163.557V162.538C1.83465 160.295 2.4462 158.461 3.2616 156.422C4.28085 154.384 5.50395 152.549 6.9309 150.714L14.4733 140.522C15.0849 139.706 15.2887 138.891 15.4926 137.668C15.9003 122.991 16.7157 108.313 17.9388 93.6363C18.5503 84.2592 18.958 74.8821 18.958 65.505V64.4857C18.958 64.078 18.958 63.4664 18.7542 63.0588C17.9388 63.4664 17.3272 63.6703 16.5119 63.6703C15.0849 63.6703 13.6579 62.8549 12.231 62.2434C9.58095 60.8164 7.3386 58.5741 5.50395 56.1279C2.8539 52.0509 1.42695 47.77 0.611551 43.0815C0.203851 40.6353 0 38.1891 0 35.7429C0 30.4427 1.01925 25.3465 3.46545 20.2502C5.3001 16.7848 7.3386 13.7271 10.1925 11.077C12.8425 8.22311 15.9003 7 19.1619 7C21.8119 7 24.2582 7.8154 26.7043 9.4462C29.5582 11.4847 31.8006 14.1348 33.4314 16.9887C36.0814 22.2888 37.7122 27.5889 38.1199 33.5005C38.7315 44.1007 39.1392 54.7009 39.1392 65.505V72.232C38.9353 84.0553 37.9161 95.8786 37.1007 107.498V110.148C37.9161 109.74 38.3238 108.925 38.7315 108.313C52.1856 91.3939 64.8243 73.8628 77.0553 55.924C84.19 45.12 91.7325 34.7236 99.4788 24.1234C102.74 19.4349 106.817 14.9502 111.098 11.077C112.525 9.8539 113.952 8.6308 115.583 7.8154C116.806 7.20386 117.825 7 119.048 7C120.068 7 121.291 7.20386 122.31 8.01925C124.145 9.44621 124.96 11.077 124.96 13.1155V14.3386C124.96 15.9694 124.348 17.6002 123.941 19.0272C121.902 25.1427 119.252 30.8505 115.583 36.1505C101.11 56.1279 87.4516 76.9205 72.7744 97.1017C62.9896 110.556 52.3894 123.602 42.1969 137.056L36.693 144.599C36.2853 145.21 35.8776 145.414 35.6737 146.026L35.266 146.841L35.4699 147.453L35.8776 147.657L36.693 147.453C47.7009 143.58 58.9126 141.541 69.7167 137.872C92.7517 130.329 106.002 126.048 128.629 117.079C129.241 116.875 129.649 116.671 130.26 116.671C131.279 116.671 132.095 117.079 132.502 117.894L132.706 118.914C132.706 119.525 132.502 119.933 131.891 120.544L129.852 121.768C118.641 127.272 116.602 128.291 104.983 132.775C91.5286 138.279 77.8707 143.376 64.4166 148.676C55.0395 152.345 46.0701 156.422 37.1007 161.111C35.4699 162.13 34.8583 163.149 34.8583 165.188C34.8583 169.672 34.8583 174.157 34.6545 178.846C34.2468 185.776 34.2468 192.911 33.4314 199.842C33.0237 201.677 32.8198 203.715 32.0044 205.346C30.7813 208.2 28.539 209.831 25.4812 209.831Z" fill="#711C88"/>
<defs>
<linearGradient id="paint0_linear_184_23" x1="353.482" y1="154.92" x2="626.639" y2="154.92" gradientUnits="userSpaceOnUse">
<stop stop-color="#A4508B"/>
<stop offset="1" stop-color="#5F0A87"/>
</linearGradient>
</defs>
</svg>
