<svg width="274" height="310" viewBox="0 0 274 310" fill="none" xmlns="http://www.w3.org/2000/svg">
<path d="M272.59 142.458C271.36 132.491 269.721 122.661 269.038 112.694C267.399 85.1152 256.471 62.5879 235.025 44.8391C228.058 39.1049 221.229 32.961 214.808 26.4076C196.231 7.29354 173.419 -1.44434 146.645 0.194015H141.728C114.544 1.28625 87.6343 3.33419 65.0954 21.7656C60.4511 25.5885 54.5773 27.9095 49.5231 31.1862C45.4251 33.9167 40.9173 36.3743 37.9122 40.0606C10.8655 72.2815 -5.52644 108.052 1.71333 151.605C4.71852 169.49 7.17731 187.512 8.5433 205.534C9.63609 220.006 11.8217 224.512 26.1646 228.061C34.6338 230.109 39.4148 234.888 40.6441 242.943C42.4199 254.685 43.3761 266.426 44.8787 278.168C45.8349 285.677 46.1081 293.595 48.8401 300.558C52.9381 311.344 63.183 312.846 71.2424 304.518C73.9744 301.651 76.16 297.555 76.9796 293.732C78.4822 287.179 78.6188 280.352 79.575 273.662C80.941 263.832 85.7219 259.327 95.6937 258.78C104.299 258.234 111.539 261.511 118.369 266.563C138.449 281.444 160.032 279.806 177.653 262.33C180.522 259.463 183.39 256.733 186.122 253.865C195.411 244.035 206.612 238.984 220.409 238.984C235.162 238.984 245.816 231.884 252.1 218.641C254.969 212.634 256.744 205.944 259.067 199.663C261.662 192.7 263.711 185.601 266.989 178.911C272.317 167.306 274.229 155.291 272.59 142.458ZM167.682 171.402C159.486 177.682 148.831 180.959 135.581 180.959C129.707 180.959 123.56 180.276 117.003 178.911C110.446 177.546 105.802 175.907 102.933 173.996C100.748 172.494 98.6989 169.354 96.9231 164.439C95.1473 159.524 94.3277 154.745 94.3277 149.967C94.3277 147.782 94.7375 146.007 95.6937 144.915C96.7865 143.413 98.2891 142.731 100.065 142.731C101.841 142.731 103.48 143.686 105.119 145.461C106.075 146.417 108.397 149.694 111.949 155.155C113.588 157.749 116.32 159.797 120.008 161.572C123.697 163.21 127.521 164.166 131.483 164.166C134.898 164.166 137.63 163.483 139.815 162.254C141.864 161.025 142.957 159.387 142.957 157.339C142.957 155.564 142.137 153.926 140.498 152.561C138.859 151.195 136.127 149.967 132.439 148.874C125.882 146.826 120.828 144.915 117.413 143.14C113.998 141.365 110.72 139.181 107.714 136.587C100.475 130.17 96.7865 122.797 96.7865 114.742C96.7865 110.646 97.7427 106.823 99.6551 102.864C101.567 99.0412 104.163 95.7645 107.714 92.8974C115.501 86.4805 124.789 83.2038 135.991 83.2038C140.771 83.2038 146.918 84.4326 154.568 86.7536C155.524 87.0266 156.207 87.1632 156.754 87.1632C157.163 87.1632 158.529 86.7536 160.852 85.9344C161.535 85.6613 162.354 85.5248 163.174 85.5248C166.316 85.5248 169.457 87.9823 172.872 92.7609C176.287 97.6759 178.063 102.318 178.063 106.687C178.063 109.281 177.243 111.465 175.741 113.24C174.238 115.015 172.326 115.834 170.14 115.834C168.365 115.834 166.862 115.425 165.633 114.742C164.54 114.059 161.944 111.875 158.12 108.189C152.656 103.001 147.192 100.407 141.864 100.407C139.269 100.407 137.22 101.089 135.717 102.318C134.215 103.547 133.395 105.185 133.395 107.233C133.395 111.192 136.947 114.196 143.913 116.244C153.475 119.111 159.486 121.022 162.218 122.388C173.965 128.122 179.839 136.45 179.839 147.509C179.566 157.203 175.604 165.121 167.682 171.402Z" fill="url(#paint0_linear_183_36)"/>
<defs>
<linearGradient id="paint0_linear_183_36" x1="0.00583889" y1="154.923" x2="273.164" y2="154.923" gradientUnits="userSpaceOnUse">
<stop stop-color="#A4508B"/>
<stop offset="1" stop-color="#5F0A87"/>
</linearGradient>
</defs>
</svg>
