<svg width="874" height="341" viewBox="0 0 874 341" fill="none" xmlns="http://www.w3.org/2000/svg">
<path d="M559.496 127.791C558.397 118.87 556.933 110.071 556.323 101.15C554.858 76.4639 545.095 56.2997 525.935 40.4128C519.712 35.2801 513.61 29.7807 507.874 23.9148C491.277 6.80578 470.897 -1.01548 446.977 0.451007H442.584C418.299 1.42866 394.257 3.26177 374.121 19.7598C369.972 23.1816 364.724 25.2591 360.209 28.1921C356.548 30.6362 352.521 32.8359 349.836 36.1355C325.673 64.9764 311.028 96.9947 317.496 135.979C320.181 151.988 322.377 168.119 323.598 184.251C324.574 197.205 326.527 201.237 339.341 204.415C346.907 206.248 351.178 210.525 352.277 217.735C353.863 228.245 354.717 238.755 356.06 249.265C356.914 255.986 357.158 263.074 359.599 269.307C363.26 278.961 372.413 280.306 379.613 272.851C382.054 270.285 384.006 266.618 384.738 263.197C386.081 257.331 386.203 251.22 387.057 245.232C388.278 236.433 392.549 232.4 401.458 231.912C409.146 231.423 415.614 234.356 421.716 238.877C439.655 252.198 458.937 250.731 474.68 235.089C477.243 232.523 479.805 230.078 482.246 227.512C490.545 218.713 500.552 214.191 512.877 214.191C526.057 214.191 535.576 207.837 541.19 195.983C543.753 190.605 545.339 184.617 547.414 178.996C549.733 172.763 551.563 166.408 554.492 160.42C559.252 150.033 560.96 139.278 559.496 127.791ZM465.771 153.699C458.449 159.32 448.93 162.253 437.092 162.253C431.845 162.253 426.353 161.642 420.495 160.42C414.638 159.198 410.488 157.732 407.926 156.021C405.973 154.677 404.142 151.866 402.556 147.466C400.969 143.067 400.237 138.79 400.237 134.512C400.237 132.557 400.603 130.968 401.458 129.991C402.434 128.646 403.776 128.035 405.363 128.035C406.949 128.035 408.414 128.891 409.878 130.48C410.732 131.335 412.807 134.268 415.98 139.156C417.444 141.478 419.885 143.311 423.18 144.9C426.475 146.366 429.892 147.222 433.431 147.222C436.482 147.222 438.923 146.611 440.876 145.511C442.706 144.411 443.682 142.945 443.682 141.112C443.682 139.523 442.95 138.056 441.486 136.834C440.021 135.612 437.581 134.512 434.286 133.535C428.428 131.702 423.912 129.991 420.861 128.402C417.811 126.813 414.882 124.858 412.197 122.536C405.729 116.792 402.434 110.193 402.434 102.983C402.434 99.3167 403.288 95.8949 404.997 92.3508C406.705 88.929 409.024 85.9961 412.197 83.4297C419.153 77.686 427.451 74.753 437.459 74.753C441.73 74.753 447.221 75.8529 454.056 77.9304C454.91 78.1748 455.52 78.297 456.008 78.297C456.374 78.297 457.595 77.9304 459.669 77.1971C460.279 76.9527 461.012 76.8305 461.744 76.8305C464.551 76.8305 467.358 79.0303 470.409 83.3075C473.459 87.707 475.046 91.862 475.046 95.7727C475.046 98.0946 474.314 100.05 472.971 101.639C471.629 103.227 469.92 103.961 467.968 103.961C466.381 103.961 465.039 103.594 463.941 102.983C462.964 102.372 460.646 100.417 457.229 97.1169C452.347 92.4731 447.466 90.1511 442.706 90.1511C440.387 90.1511 438.557 90.7622 437.214 91.862C435.872 92.9619 435.14 94.4284 435.14 96.2615C435.14 99.8055 438.313 102.494 444.537 104.327C453.079 106.894 458.449 108.604 460.89 109.826C471.385 114.959 476.632 122.414 476.632 132.313C476.388 140.989 472.849 148.077 465.771 153.699Z" fill="url(#paint0_linear_191_55)"/>
<path d="M682.988 225.834C683.396 225.834 683.6 225.63 683.804 225.426C700.733 209.485 715.827 195.385 726.434 174.131C729.494 168.204 729.697 166.365 730.309 159.621C730.309 157.373 730.105 153.899 728.066 153.899C721.743 154.512 716.847 159.008 713.584 162.482C696.042 179.444 688.699 202.946 682.988 225.017L682.784 225.426L682.988 225.834ZM729.086 337.007C716.847 337.007 710.932 318.819 710.932 303.492C710.932 289.391 714.4 275.29 717.051 262.62C719.091 251.993 720.111 246.679 720.723 236.053C720.723 235.235 720.723 234.622 720.315 234.622C719.907 234.622 719.499 235.031 718.887 235.644C710.728 244.636 705.833 255.671 702.773 268.75C700.121 279.377 698.898 290.413 694.206 300.222C690.943 307.579 686.047 309.827 680.132 309.827C676.257 309.623 675.237 309.827 671.769 308.397C657.899 303.492 655.859 283.056 655.859 269.568C655.859 242.592 664.018 213.573 672.789 190.275C679.52 172.087 691.147 152.673 707.057 141.433C712.36 137.754 719.703 133.872 726.434 133.872C736.633 133.872 743.364 143.068 743.364 153.695C742.752 168.409 738.06 176.379 729.494 188.232C714.196 208.259 697.674 222.565 681.152 237.074C680.132 237.687 679.724 238.505 679.52 239.527C677.48 249.745 676.257 260.167 676.257 270.385C676.461 281.216 677.073 286.326 681.356 295.317C682.172 296.748 683.192 297.974 684.416 297.974C688.087 297.974 690.331 287.143 691.759 279.786C693.594 267.933 696.858 256.284 701.957 245.249C706.445 234.622 714.604 223.382 726.026 222.973C735.613 222.973 739.692 233.396 739.692 245.249C739.692 262.824 731.125 282.647 731.125 303.288C731.125 305.944 731.329 308.601 731.737 311.258C731.941 312.279 732.757 315.549 733.573 316.162C735.205 314.936 736.633 313.301 738.06 311.666C747.239 300.222 752.134 288.574 758.458 275.29L771.512 248.519C772.532 246.066 774.164 242.796 775.795 242.796C777.019 243.205 777.427 243.41 777.427 244.84C777.427 245.249 777.427 245.658 777.223 246.066L769.676 263.846C763.761 277.334 746.627 326.789 737.652 333.737C735.001 335.781 731.941 337.007 729.086 337.007Z" fill="#97438A"/>
<path d="M574.924 271.816C576.556 271.203 577.576 270.386 578.799 269.568C589.61 261.598 596.341 249.745 607.763 239.936C608.171 239.731 608.579 239.323 608.579 238.914C607.967 235.235 608.987 233.396 605.928 233.396C601.848 233.396 593.281 239.527 591.446 240.753C584.103 246.271 579.207 253.423 576.352 262.007C575.536 264.663 574.924 267.524 574.924 270.386V271.816ZM613.679 340.277C609.803 340.277 606.132 338.438 603.276 334.964C597.769 328.22 595.933 318.411 595.933 309.827C595.933 286.734 603.684 268.546 611.231 247.701V247.293C610.619 247.293 610.211 247.701 610.007 248.11C607.356 250.767 605.316 253.628 603.276 256.693C596.545 266.094 590.834 277.129 583.695 287.348C580.839 291.435 576.148 293.683 571.252 293.683C566.357 293.683 561.666 291.639 558.402 287.143C554.935 282.443 554.527 278.56 554.527 272.633C554.527 250.358 568.193 228.491 588.386 219.295C590.63 218.273 593.077 217.66 595.729 217.66C601.032 217.66 606.54 219.908 610.415 224.2C612.455 226.652 613.271 229.513 613.271 232.374L613.067 236.053H613.271C613.883 236.053 614.087 235.644 614.699 235.44C617.962 234.009 619.186 233.6 622.653 232.987C628.773 232.987 631.424 240.753 631.424 247.088C631.424 249.745 631.016 252.402 630.2 255.058C623.061 274.064 616.942 289.8 616.33 309.827C616.33 312.484 616.534 315.141 617.146 317.593C617.35 318.206 617.35 318.819 617.962 319.432C619.798 318.206 621.226 316.776 622.45 314.936C625.917 310.849 628.569 306.353 631.22 301.857C642.439 281.625 648.762 263.437 659.777 244.227C660.388 243.205 661 242.797 661.612 242.797C662.836 243.001 663.448 243.205 663.448 244.432L663.04 246.066L655.697 263.233C649.782 276.925 631.22 330.059 622.246 337.007C619.594 339.051 616.534 340.277 613.679 340.277Z" fill="#97438A"/>
<path d="M769.145 141.171C773.021 140.149 775.265 138.105 777.916 135.448C792.806 121.756 798.925 105.407 811.98 92.1237C812.184 91.715 812.388 91.3063 812.388 90.8976V90.4889C809.736 83.5405 806.268 80.8838 802.393 80.8838C797.906 80.8838 792.602 84.7667 787.095 90.2845C776.692 100.911 767.106 115.217 766.698 132.383C766.902 134.427 766.902 137.288 767.922 140.149C768.125 140.762 768.533 141.171 769.145 141.171ZM784.851 235.79C804.025 233.747 809.124 215.15 813.611 195.531C817.283 180.817 818.099 172.029 819.935 156.089C818.915 156.293 818.711 156.702 818.507 157.111C806.472 170.599 793.622 184.7 784.851 202.07C781.18 208.814 777.508 217.398 777.508 225.572C778.12 232.112 779.344 235.79 784.851 235.79ZM785.259 256.226C782.812 256.226 780.568 255.818 778.12 255.205C766.086 252.343 761.802 241.104 761.802 229.046C762.414 210.041 772.817 195.122 785.463 180.408C796.07 167.942 807.288 156.089 818.711 144.236C820.343 142.601 820.954 140.966 820.954 138.718C820.954 125.23 820.546 118.282 820.139 105.612L820.546 98.6633C819.527 98.8677 819.119 99.6851 818.507 100.298C816.467 102.546 814.631 104.999 812.796 107.451C803.821 121.347 796.886 136.266 787.299 149.141C781.996 156.089 776.488 161.811 767.718 161.811C762.006 161.811 756.091 159.359 752.216 153.637C747.932 147.301 746.504 139.331 746.504 131.361C746.504 109.086 760.986 85.5842 777.916 71.4832C783.423 66.5785 791.786 61.6738 799.333 61.6738C810.96 61.6738 818.915 72.3006 818.915 83.9493V84.9711C818.915 85.3798 818.915 85.7885 819.323 86.4016C820.342 86.1973 821.362 85.9929 822.586 85.9929L824.626 86.1973C834.417 87.6278 839.72 101.32 840.536 109.903C841.148 113.99 840.74 117.056 841.352 121.347C842.168 121.143 842.78 120.326 843.187 119.917C850.734 112.969 859.709 105.407 869.5 97.2328L870.52 96.8241C871.744 96.8241 873.171 97.6415 873.171 98.8677C873.171 99.6851 872.56 100.911 871.132 102.342C860.117 112.764 850.938 122.982 842.576 131.157C841.556 131.974 841.148 133.2 841.148 134.631C841.148 150.571 839.72 165.285 836.864 182.247C834.213 199.209 829.725 218.624 821.158 233.542C814.019 246.008 800.149 256.226 785.259 256.226Z" fill="#97438A"/>
<path d="M707.794 182.247C697.392 182.247 692.7 171.211 692.7 160.789C692.7 142.601 696.984 126.865 702.491 108.677C704.327 102.546 706.571 96.6193 707.998 90.2841C708.814 87.2186 710.446 80.066 710.446 74.7526C710.446 71.074 709.63 68.213 706.775 68.213C705.755 68.213 704.327 68.6217 702.491 69.6435C690.661 76.3875 684.338 90.2841 681.278 104.181C678.626 118.486 675.159 140.353 666.184 152.001C662.92 156.089 657.617 158.541 653.13 158.541C639.871 158.541 637.016 143.418 637.016 132.178C637.016 125.026 638.036 117.873 639.871 110.925C640.687 107.246 641.503 103.568 642.727 100.093C644.563 94.78 649.05 91.1015 653.742 91.1015C659.249 91.1015 662.105 94.78 662.716 101.524C662.716 103.363 662.512 104.998 661.901 106.633C659.249 115.012 657.413 122.369 657.209 131.565C657.209 134.018 657.413 136.47 657.617 138.922C659.657 137.492 660.881 136.061 662.105 134.426C667 127.069 670.671 107.246 672.711 98.2542C674.547 89.8753 677.606 81.9052 682.094 74.5482C688.825 64.1257 700.043 54.7251 710.854 54.7251C719.829 54.7251 727.784 60.856 729.212 72.7089C729.416 74.9569 729.619 77.4093 729.619 79.6572C729.619 96.0062 722.48 111.946 717.585 129.113C714.322 139.74 713.302 151.593 712.894 162.219C712.894 162.628 712.894 163.241 713.302 163.65H713.506C714.118 163.65 714.322 163.241 714.729 163.037C724.724 154.862 750.017 111.538 756.952 98.8673C757.564 97.6411 758.788 96.8236 760.011 96.8236C761.235 96.8236 762.051 97.6411 762.051 99.0716C762.051 99.6847 761.847 100.502 761.439 101.524C748.181 127.682 735.127 152.41 719.625 175.094C715.545 180.203 712.894 182.247 707.794 182.247Z" fill="#97438A"/>
<path d="M589.897 153.84C593.772 152.819 596.424 149.753 598.667 145.87C604.379 136.061 606.214 123.391 606.214 112.151C606.214 106.224 602.951 104.998 599.891 98.4584C599.075 98.8671 598.667 99.2759 598.464 99.8889C597.036 101.524 595.812 103.363 594.792 105.407C588.469 117.055 585.613 129.521 585.613 142.805C585.613 147.71 585.613 153.84 588.673 153.84H589.897ZM587.653 174.277C582.962 174.277 578.882 172.642 575.823 170.394C567.052 164.263 565.42 152.819 565.42 140.353C565.624 123.799 569.907 107.45 578.882 92.5319C583.777 84.5618 589.897 77.8179 598.26 77.8179C602.543 77.8179 607.846 79.044 608.458 84.3574C608.458 84.9705 608.866 85.1749 609.274 85.3793C613.965 87.4229 614.781 93.145 615.597 97.4366C616.209 101.115 618.453 101.933 621.104 101.933C622.532 101.933 623.96 101.728 625.388 101.524L647.009 96.8235C648.845 96.8235 649.253 97.4366 649.661 99.0715C649.661 99.889 649.049 100.298 648.437 100.706C647.213 101.524 645.785 102.137 644.357 102.546C638.646 104.794 632.731 106.837 626.612 108.063C616.209 110.107 617.229 109.698 616.617 115.42C616.413 120.938 616.413 126.252 615.597 131.565C612.13 152.001 603.359 174.277 587.653 174.277Z" fill="#97438A"/>
<path d="M517.851 110.925C518.259 110.925 518.259 110.925 518.463 110.72C527.03 104.998 537.637 98.0498 537.637 88.0361C528.662 93.7582 522.339 101.524 517.443 110.925H517.851ZM512.548 161.198H511.936C504.593 161.198 498.474 156.906 494.802 148.936C492.151 142.805 491.539 136.47 491.539 130.135C492.355 108.064 505.613 85.9925 522.951 73.322C527.03 70.0522 532.741 66.9868 537.637 66.9868C545.796 66.9868 550.691 72.9133 550.895 81.7009C550.895 102.341 531.925 115.829 514.384 123.186C513.16 123.799 512.548 124.412 512.344 125.843C512.14 127.887 511.936 130.135 511.936 132.178C511.936 134.222 512.14 136.265 512.548 138.309C513.568 143.009 516.016 144.031 521.115 144.44C523.563 144.44 525.806 143.827 527.846 142.805C544.164 135.652 564.969 113.786 576.391 99.0716C577.207 97.8455 578.431 96.8236 579.451 96.8236C580.471 96.8236 581.695 98.0498 581.695 99.276C581.695 100.502 581.491 100.502 580.675 102.137C570.476 118.486 541.92 152.001 525.806 158.541C521.931 160.176 518.055 161.198 512.548 161.198Z" fill="#97438A"/>
<path d="M310.385 144.307C313.845 143.395 315.849 141.57 318.216 139.198C331.511 126.973 336.974 112.376 348.63 100.516C348.812 100.151 348.994 99.7857 348.994 99.4208V99.0558C346.627 92.852 343.531 90.4799 340.07 90.4799C336.064 90.4799 331.329 93.9468 326.411 98.8734C317.123 108.362 308.564 121.134 308.2 136.461C308.382 138.286 308.382 140.841 309.292 143.395C309.474 143.942 309.839 144.307 310.385 144.307ZM324.408 228.789C341.527 226.964 346.08 210.36 350.087 192.843C353.365 179.706 354.094 171.86 355.733 157.627C354.822 157.81 354.64 158.175 354.458 158.54C343.713 170.582 332.239 183.173 324.408 198.682C321.13 204.704 317.852 212.367 317.852 219.666C318.398 225.505 319.491 228.789 324.408 228.789ZM324.772 247.036C322.587 247.036 320.584 246.671 318.398 246.123C307.653 243.569 303.829 233.533 303.829 222.768C304.375 205.798 313.663 192.478 324.955 179.341C334.425 168.21 344.441 157.627 354.64 147.044C356.097 145.585 356.643 144.125 356.643 142.118C356.643 130.075 356.279 123.871 355.915 112.558L356.279 106.354C355.368 106.537 355.004 107.267 354.458 107.814C352.637 109.821 350.997 112.011 349.358 114.2C341.345 126.608 335.153 139.928 326.594 151.424C321.859 157.627 316.941 162.736 309.11 162.736C304.011 162.736 298.729 160.547 295.269 155.438C291.445 149.781 290.17 142.665 290.17 135.549C290.17 115.66 303.1 94.6766 318.216 82.0865C323.133 77.7073 330.6 73.3281 337.339 73.3281C347.719 73.3281 354.822 82.8164 354.822 93.2169V94.1292C354.822 94.4942 354.822 94.8591 355.186 95.4065C356.097 95.224 357.007 95.0416 358.1 95.0416L359.921 95.224C368.663 96.5013 373.398 108.727 374.127 116.39C374.673 120.039 374.309 122.776 374.855 126.608C375.583 126.426 376.13 125.696 376.494 125.331C383.232 119.127 391.246 112.376 399.987 105.077L400.898 104.712C401.991 104.712 403.265 105.442 403.265 106.537C403.265 107.267 402.719 108.362 401.444 109.639C391.61 118.945 383.415 128.068 375.948 135.367C375.037 136.096 374.673 137.191 374.673 138.468C374.673 152.701 373.398 165.838 370.848 180.983C368.481 196.128 364.474 213.462 356.825 226.782C350.451 237.912 338.067 247.036 324.772 247.036Z" fill="#711C88"/>
<path d="M255.607 180.983C246.319 180.983 242.13 171.13 242.13 161.824C242.13 145.584 245.955 131.534 250.872 115.295C252.511 109.821 254.515 104.53 255.789 98.8731C256.518 96.1361 257.975 89.7498 257.975 85.0057C257.975 81.7213 257.246 79.1668 254.697 79.1668C253.786 79.1668 252.511 79.5317 250.872 80.444C240.309 86.4654 234.664 98.8731 231.932 111.281C229.564 124.053 226.468 143.577 218.455 153.978C215.541 157.627 210.806 159.817 206.799 159.817C194.962 159.817 192.412 146.314 192.412 136.279C192.412 129.892 193.323 123.506 194.962 117.302C195.69 114.018 196.419 110.733 197.511 107.631C199.15 102.887 203.157 99.603 207.346 99.603C212.263 99.603 214.813 102.887 215.359 108.909C215.359 110.551 215.177 112.011 214.631 113.47C212.263 120.951 210.624 127.52 210.442 135.731C210.442 137.921 210.624 140.11 210.806 142.3C212.627 141.023 213.72 139.745 214.813 138.286C219.184 131.717 222.462 114.018 224.283 105.989C225.922 98.5082 228.654 91.392 232.66 84.8232C238.67 75.5175 248.687 67.124 258.339 67.124C266.352 67.124 273.455 72.598 274.73 83.181C274.912 85.1882 275.094 87.3777 275.094 89.3849C275.094 103.982 268.72 118.214 264.349 133.542C261.435 143.03 260.524 153.613 260.16 163.101C260.16 163.466 260.16 164.013 260.524 164.378H260.707C261.253 164.378 261.435 164.013 261.799 163.831C270.723 156.532 293.306 117.85 299.498 106.537C300.044 105.442 301.137 104.712 302.23 104.712C303.322 104.712 304.051 105.442 304.051 106.719C304.051 107.267 303.869 107.996 303.504 108.909C291.667 132.264 280.011 154.343 266.17 174.596C262.528 179.158 260.16 180.983 255.607 180.983Z" fill="#711C88"/>
<path d="M124.701 130.623C126.158 130.076 127.069 129.346 128.161 128.616C137.814 121.5 143.824 110.917 154.022 102.158C154.386 101.976 154.751 101.611 154.751 101.246C154.204 97.9616 155.115 96.3194 152.383 96.3194C148.741 96.3194 141.092 101.793 139.453 102.888C132.896 107.815 128.526 114.201 125.976 121.865C125.247 124.237 124.701 126.791 124.701 129.346V130.623ZM159.304 191.749C155.843 191.749 152.565 190.107 150.016 187.005C145.098 180.984 143.459 172.225 143.459 164.562C143.459 143.943 150.38 127.704 157.118 109.092V108.727C156.572 108.727 156.208 109.092 156.025 109.457C153.658 111.829 151.837 114.384 150.016 117.121C144.006 125.514 138.906 135.367 132.532 144.49C129.983 148.14 125.794 150.147 121.423 150.147C117.052 150.147 112.863 148.322 109.95 144.308C106.853 140.111 106.489 136.644 106.489 131.353C106.489 111.464 118.691 91.9402 136.721 83.7293C138.724 82.8169 140.91 82.2695 143.277 82.2695C148.012 82.2695 152.929 84.2767 156.39 88.1084C158.211 90.298 158.939 92.8526 158.939 95.4071L158.757 98.6915H158.939C159.486 98.6915 159.668 98.3265 160.214 98.1441C163.128 96.8668 164.221 96.5019 167.317 95.9545C172.78 95.9545 175.148 102.888 175.148 108.545C175.148 110.917 174.784 113.289 174.055 115.661C167.681 132.63 162.218 146.68 161.671 164.562C161.671 166.934 161.853 169.306 162.4 171.495C162.582 172.043 162.582 172.59 163.128 173.138C164.767 172.043 166.042 170.766 167.135 169.123C170.231 165.474 172.598 161.46 174.966 157.445C184.982 139.381 190.628 123.142 200.462 105.99C201.009 105.078 201.555 104.713 202.101 104.713C203.194 104.895 203.741 105.078 203.741 106.173L203.376 107.632L196.82 122.959C191.539 135.185 174.966 182.626 166.953 188.83C164.585 190.654 161.853 191.749 159.304 191.749Z" fill="#711C88"/>
<path d="M16.9268 52.3444V48.5126C16.7447 39.7542 16.1983 31.1783 16.1983 22.4199V19.8654C16.1983 19.318 16.0162 18.7706 15.6519 18.4057C12.5559 20.9602 10.1884 26.9816 10.1884 33.7328C10.1884 39.9367 12.1917 46.8704 16.9268 52.3444ZM22.9367 188.099H22.5725C20.0228 188.099 18.2016 186.639 17.1089 184.45C16.0162 182.26 15.2877 179.706 14.9235 177.151C14.0129 170.4 13.6486 163.649 13.6486 156.715V156.167C13.6486 155.438 13.6486 155.255 12.5559 155.255H11.099C5.99967 155.255 2.17518 151.788 1.81094 146.679V145.767C1.81094 143.76 2.3573 142.118 3.08577 140.293C3.99636 138.468 5.08908 136.826 6.3639 135.184L13.1023 126.061C13.6486 125.331 13.8308 124.601 14.0129 123.506C14.3771 110.369 15.1056 97.231 16.1983 84.0934C16.7447 75.7 17.1089 67.3066 17.1089 58.9131V58.0008C17.1089 57.6359 17.1089 57.0885 16.9268 56.7235C16.1983 57.0885 15.6519 57.271 14.9235 57.271C13.6486 57.271 12.3738 56.5411 11.099 55.9937C8.73144 54.7164 6.72814 52.7093 5.08908 50.5197C2.72153 46.8704 1.44671 43.0386 0.718231 38.8419C0.353994 36.6523 0.171875 34.4627 0.171875 32.2731C0.171875 27.529 1.08247 22.9674 3.26789 18.4057C4.90696 15.3038 6.72814 12.5668 9.2778 10.1947C11.6453 7.64021 14.3771 6.54541 17.291 6.54541C19.6586 6.54541 21.844 7.27528 24.0294 8.73501C26.5791 10.5597 28.5824 12.9317 30.0393 15.4862C32.4068 20.2304 33.8638 24.9745 34.228 30.266C34.7744 39.7542 35.1386 49.2424 35.1386 58.9131V64.9345C34.9565 75.5175 34.0459 86.1006 33.3174 96.5011V98.8732C34.0459 98.5082 34.4102 97.7784 34.7744 97.231C46.7942 82.0863 58.0856 66.3942 69.0127 50.3372C75.3868 40.6665 82.1252 31.3608 89.0457 21.8726C91.9596 17.6758 95.602 13.6616 99.4264 10.1947C100.701 9.09993 101.976 8.00514 103.433 7.27528C104.526 6.72788 105.436 6.54541 106.529 6.54541C107.44 6.54541 108.532 6.72789 109.443 7.45774C111.082 8.73501 111.811 10.1947 111.811 12.0194V13.1142C111.811 14.5739 111.264 16.0336 110.9 17.3109C109.079 22.7849 106.711 27.8939 103.433 32.638C90.5026 50.5197 78.3007 69.1312 65.1882 87.1954C56.4465 99.2381 46.9763 110.916 37.8704 122.959L32.9532 129.71C32.589 130.257 32.2247 130.44 32.0426 130.987L31.6784 131.717L31.8605 132.264L32.2247 132.447L32.9532 132.264C42.7876 128.798 52.8041 126.973 62.4564 123.689C83.0358 116.937 94.8735 113.106 115.089 105.077C115.635 104.895 115.999 104.712 116.546 104.712C117.456 104.712 118.185 105.077 118.549 105.807L118.731 106.719C118.731 107.267 118.549 107.632 118.003 108.179L116.181 109.274C106.165 114.2 104.344 115.113 93.9629 119.127C81.9431 124.053 69.7411 128.615 57.7213 133.359C49.3439 136.644 41.3307 140.293 33.3174 144.49C31.8605 145.402 31.3141 146.314 31.3141 148.139C31.3141 152.153 31.3141 156.167 31.132 160.364C30.7678 166.568 30.7678 172.954 30.0393 179.158C29.6751 180.8 29.493 182.625 28.7645 184.085C27.6718 186.639 25.6685 188.099 22.9367 188.099Z" fill="#711C88"/>
<defs>
<linearGradient id="paint0_linear_191_55" x1="315.971" y1="138.948" x2="560.008" y2="138.948" gradientUnits="userSpaceOnUse">
<stop stop-color="#A4508B"/>
<stop offset="1" stop-color="#5F0A87"/>
</linearGradient>
</defs>
</svg>
